HIERARCHY
ROOT Hips
{
	OFFSET 0.00000 0.00000 0.00000
	CHANNELS 6 Xposition Yposition Zposition Zrotation Yrotation Xrotation 
	JOINT LHipJoint
	{
		OFFSET 0 0 0
		CHANNELS 3 Zrotation Yrotation Xrotation
		JOINT LeftHip
		{
			OFFSET 1.57338 -1.94743 0.52196
			CHANNELS 3 Zrotation Yrotation Xrotation
			JOINT LeftKnee
			{
				OFFSET 2.60333 -7.15259 0.00000
				CHANNELS 3 Zrotation Yrotation Xrotation
				JOINT LeftAnkle
				{
					OFFSET 2.77855 -7.63400 0.00000
					CHANNELS 3 Zrotation Yrotation Xrotation
					JOINT LeftToe
					{
						OFFSET 0.19847 -0.54529 2.28466
						CHANNELS 3 Zrotation Yrotation Xrotation
						End Site
						{
							OFFSET 0.00000 -0.00000 1.17993
						}
					}
				}
			}
		}
	}
	JOINT RHipJoint
	{
		OFFSET 0 0 0
		CHANNELS 3 Zrotation Yrotation Xrotation
		JOINT RightHip
		{
			OFFSET -1.61527 -1.94743 0.52196
			CHANNELS 3 Zrotation Yrotation Xrotation
			JOINT RightKnee
			{
				OFFSET -2.53829 -6.97390 0.00000
				CHANNELS 3 Zrotation Yrotation Xrotation
				JOINT RightAnkle
				{
					OFFSET -2.80762 -7.71387 0.00000
					CHANNELS 3 Zrotation Yrotation Xrotation
					JOINT RightToe
					{
						OFFSET -0.30536 -0.83898 2.28801
						CHANNELS 3 Zrotation Yrotation Xrotation
						End Site
						{
							OFFSET -0.00000 -0.00000 1.21323
						}
					}
				}
			}
		}
	}
	JOINT lowerback
	{
		OFFSET 0 0 0
		CHANNELS 3 Zrotation Yrotation Xrotation
		JOINT Chest
		{
			OFFSET -0.04381 1.99497 -0.19778
			CHANNELS 3 Zrotation Yrotation Xrotation
			JOINT Chest2
			{
				OFFSET -0.01959 2.01295 -0.04372
				CHANNELS 3 Zrotation Yrotation Xrotation
				JOINT lowerneck
				{
					OFFSET 0 0 0
					CHANNELS 3 Zrotation Yrotation Xrotation
					JOINT Neck
					{
						OFFSET -0.05459 1.76913 0.09708
						CHANNELS 3 Zrotation Yrotation Xrotation
						JOINT Head
						{
							OFFSET 0.09461 1.77368 -0.11172
							CHANNELS 3 Zrotation Yrotation Xrotation
							End Site
							{
								OFFSET 0.03812 1.78157 -0.04834
							}
						}
					}
				}
				JOINT LeftCollar
				{
					OFFSET 0 0 0
					CHANNELS 3 Zrotation Yrotation Xrotation
					JOINT LeftShoulder
					{
						OFFSET 3.50922 1.24034 -0.28866
CHANNELS 3 Zrotation Xrotation Yrotation
						JOINT LeftElbow
						{
OFFSET 0 -5.401880 0.000000
CHANNELS 3 Zrotation Xrotation Yrotation
							JOINT LeftWrist
							{
OFFSET 0 -3.685590 0.000000
CHANNELS 3 Zrotation Xrotation Yrotation
								JOINT lhand
								{
									OFFSET 0 0 0
CHANNELS 3 Zrotation Xrotation Yrotation
									JOINT LFingers
									{
OFFSET 0 -0.617530 0.000000
CHANNELS 3 Zrotation Xrotation Yrotation
										End Site
										{
OFFSET 0 -0.497870 0.000000
										}
									}
								}
								JOINT LThumb
								{
OFFSET 0 0.000000 0.000000
CHANNELS 3 Zrotation Xrotation Yrotation
									End Site
									{
OFFSET 0 -0.505470 0.505470
									}
								}
							}
						}
					}
				}
				JOINT RightCollar
				{
					OFFSET 0 0 0
					CHANNELS 3 Zrotation Yrotation Xrotation
					JOINT RightShoulder
					{
						OFFSET -2.95373 1.39649 -0.27346
CHANNELS 3 Zrotation Xrotation Yrotation
						JOINT RightElbow
						{
OFFSET 0 -6.106700 -0.000000
CHANNELS 3 Zrotation Xrotation Yrotation
							JOINT RightWrist
							{
OFFSET 0 -3.630520 0.000000
CHANNELS 3 Zrotation Xrotation Yrotation
								JOINT rhand
								{
									OFFSET 0 0 0
CHANNELS 3 Zrotation Xrotation Yrotation
									JOINT RFingers
									{
OFFSET 0 -0.583850 0.000000
CHANNELS 3 Zrotation Xrotation Yrotation
										End Site
										{
OFFSET 0 -0.470710 0.000000
										}
									}
								}
								JOINT RThumb
								{
OFFSET 0 0.000000 0.000000
CHANNELS 3 Zrotation Xrotation Yrotation
									End Site
									{
OFFSET 0 -0.477900 0.477900
									}
								}
							}
						}
					}
				}
			}
		}
	}
}
MOTION
Frames: 9
Frame Time: 0.008333333333333333
-0.283000 18.674200 -1.758800 0.355500 -2.482900 1.499600 0.000000 0.000000 0.000000 -13.248700 -8.844800 3.414300 0.662100 5.204200 14.492000 0.116300 14.728400 -22.117000 0.262300 -3.294800 -9.100600 0.000000 0.000000 0.000000 16.888600 20.971000 1.567700 -1.494100 -7.721600 21.871700 -0.670200 -10.398700 -22.532100 -0.119900 2.232500 -6.148700 0.868100 0.264500 3.518600 0.708200 0.391700 0.914300 0.221800 0.194200 -1.033900 -8.869600 -7.888900 -6.781700 10.262800 -11.945300 21.344100 3.713700 -5.433700 8.930000 0.000000 0.000000 0.000000 3.607300 6.518100 -1.608000 13.812300 -22.465700 2.756000 21.701600 11.354300 -22.849600 0.000000 0.000000 0.000000 -7.125000 0.000000 0.000000 -7.762800 54.208400 1.764900 0.000000 0.000000 0.000000 -13.779200 3.029100 22.638300 -21.403000 -32.295800 -6.263900 -24.643100 9.744500 -4.446500 0.000000 0.000000 0.000000 7.125000 0.000000 -0.000000 1.508800 25.089600 0.726900
-0.359693 18.639779 -1.860326 1.675522 -4.398305 1.710876 0.000000 0.000000 0.000000 -14.200664 -6.746601 1.339619 0.813733 5.756169 16.078583 0.177426 14.192875 -22.029336 0.286391 -3.441603 -9.510652 0.000000 0.000000 0.000000 15.355161 22.986800 -1.112614 -2.011224 -8.889005 25.448923 -0.819126 -9.342105 -22.915416 -0.151884 2.511397 -6.921296 0.727021 -0.242993 5.235833 0.921917 -0.275206 1.821524 0.554703 -0.138808 -1.061886 -9.325711 -9.557259 -5.767626 8.572866 -14.212544 24.232416 2.958452 -6.663339 9.916866 0.000000 0.000000 0.000000 3.261966 5.127281 -7.142038 15.240348 -24.479416 3.325099 20.393677 10.335428 -22.888202 0.000000 0.000000 0.000000 -7.125000 0.000000 0.000000 -9.117522 53.997063 2.027948 0.000000 0.000000 0.000000 -16.322248 1.091633 25.687278 -28.449876 -39.523957 -10.409966 -27.241587 7.101651 -4.792134 0.000000 0.000000 0.000000 7.125000 0.000000 0.000000 -0.430623 24.593005 -0.212517
-0.411669 18.549725 -2.102847 4.416345 -8.178643 2.657029 0.000000 0.000000 0.000000 -16.631279 -3.286833 -3.797670 1.208122 6.972983 19.635362 0.291523 13.485233 -22.270174 0.374228 -3.929289 -10.877675 0.000000 0.000000 0.000000 11.055037 26.670653 -7.364243 -3.118197 -10.883645 31.888703 -1.076864 -6.806308 -23.178615 -0.162455 2.597141 -7.158930 -0.624263 -0.484123 7.822782 0.907955 -0.677146 2.868426 1.345757 -0.346137 -1.403803 -9.375260 -9.954571 -5.678454 8.034472 -14.604960 23.971443 2.732279 -6.902057 9.809160 0.000000 0.000000 0.000000 4.091515 2.901820 -19.682713 19.094849 -29.536078 5.077673 28.719138 13.795197 -22.085595 0.000000 0.000000 0.000000 -7.125000 0.000000 0.000000 -0.148765 54.808566 0.036343 0.000000 0.000000 0.000000 -19.367964 -2.846978 27.836926 -36.569963 -45.900782 -15.930630 -27.628660 6.339586 -5.626197 0.000000 0.000000 0.000000 7.125000 0.000000 0.000000 -0.685247 23.635089 -0.353041
-0.430687 18.465516 -2.371714 6.526677 -14.478270 3.203234 0.000000 0.000000 0.000000 -18.717697 0.830274 -7.630010 1.466557 7.653225 21.665594 0.389178 13.542413 -23.254463 0.341786 -3.756279 -10.392017 0.000000 0.000000 0.000000 6.900384 29.999362 -13.253777 -3.832717 -11.934331 35.500250 -1.140333 -2.954941 -21.437588 -0.143211 2.438571 -6.719512 -0.183853 -0.719985 10.686124 0.774006 -0.975549 4.455170 1.017336 -0.503606 -1.337174 -8.739504 -9.226614 -5.922536 7.662826 -13.370258 22.132532 2.668479 -6.329959 9.005214 0.000000 0.000000 0.000000 6.506294 -4.046178 -36.819641 23.081140 -34.176892 7.184017 30.190452 17.535053 -22.574688 0.000000 0.000000 0.000000 -7.125000 0.000000 0.000000 1.335092 55.661612 -0.349587 0.000000 0.000000 0.000000 -22.016037 -11.673827 29.741971 -38.276484 -47.014919 -17.167548 -32.592037 9.189682 -5.325555 0.000000 0.000000 0.000000 7.125000 0.000000 0.000000 -4.373141 23.669744 -2.255491
-0.333696 18.494039 -2.626687 8.014634 -23.405579 5.353134 0.000000 0.000000 0.000000 -21.118029 3.930713 -12.579093 1.614054 8.011194 22.748095 0.250110 16.323229 -25.390284 0.250518 -3.220136 -8.892312 0.000000 0.000000 0.000000 1.401815 31.795885 -20.812368 -3.577636 -11.575993 34.248134 -0.858479 3.902918 -16.629666 -0.088391 1.915666 -5.272698 0.968074 -0.786719 14.561704 1.430816 -0.902689 5.162553 1.099371 -0.474563 -2.700950 -8.527436 -8.190487 -7.060178 6.780980 -11.513305 20.287517 2.526348 -5.509378 8.343470 0.000000 0.000000 0.000000 5.153081 -15.573702 -48.440833 25.659668 -36.870385 8.682725 29.180909 18.553300 -21.824704 0.000000 0.000000 0.000000 -7.125000 0.000000 0.000000 0.409572 54.619634 -0.097195 0.000000 0.000000 0.000000 -24.877943 -23.242219 30.999802 -33.680879 -43.845900 -13.891874 -33.598190 15.805096 -3.046725 0.000000 0.000000 0.000000 7.125000 0.000000 0.000000 -5.312167 26.316998 -2.416270
-0.275392 18.531384 -2.871358 10.237509 -32.325763 8.078953 0.000000 0.000000 0.000000 -23.675024 7.259049 -18.372212 1.653913 8.104610 23.032349 -0.125761 17.051294 -22.982951 0.632027 -5.086407 -14.155321 0.000000 0.000000 0.000000 -4.638769 31.706714 -29.729669 -3.461571 -11.407136 33.665702 -1.074685 -1.888962 -20.355812 -0.352849 3.766703 -10.427326 1.161779 -0.724364 19.016446 1.523139 -0.786549 6.620522 1.127901 -0.444414 -3.508282 -7.035996 -7.226819 -8.964663 5.860200 -9.784761 16.045112 2.145062 -4.654164 7.016262 0.000000 0.000000 0.000000 4.042157 -28.024801 -54.707237 28.722352 -39.772637 10.582742 28.021139 17.861408 -21.939401 0.000000 0.000000 0.000000 -7.125000 0.000000 0.000000 -0.860630 54.503753 0.202596 0.000000 0.000000 0.000000 -26.575008 -36.301883 30.187445 -27.644179 -38.785317 -9.900419 -32.505640 18.777346 -1.830312 0.000000 0.000000 0.000000 7.125000 0.000000 0.000000 -4.568822 27.800544 -1.916169
-0.405624 18.467856 -3.062506 12.400292 -38.072759 11.416743 0.000000 0.000000 0.000000 -25.647727 7.976421 -24.684484 1.833030 8.509239 24.271839 -0.175090 16.778391 -22.077732 0.751874 -5.538215 -15.450236 0.000000 0.000000 0.000000 -8.429133 28.182732 -39.890333 -3.736662 -11.801344 35.033023 -0.246648 -8.377939 -15.895733 -0.004172 -0.416856 1.145389 0.792805 -0.700383 22.576954 2.041115 -0.813968 7.656455 1.955732 -0.494017 -4.198112 -6.471009 -6.546715 -9.956102 5.188699 -8.582143 12.631421 1.965959 -4.098912 5.963013 0.000000 0.000000 0.000000 -0.095808 -41.417178 -60.326190 27.435748 -38.590691 9.770066 26.878820 12.261906 -20.709147 0.000000 0.000000 0.000000 -7.125000 0.000000 0.000000 -1.754032 52.940569 0.342790 0.000000 0.000000 0.000000 -27.772276 -47.116266 26.514379 -22.683861 -33.740561 -6.962241 -33.076032 15.004985 -0.281309 0.000000 0.000000 0.000000 7.125000 0.000000 0.000000 -5.110829 29.625748 -1.922844
-0.669627 18.249709 -3.220746 16.177691 -41.044819 12.468740 0.000000 0.000000 0.000000 -28.084076 6.452684 -29.314036 2.217857 9.305771 26.756586 -0.067333 17.227691 -23.797921 0.627665 -5.069324 -14.106429 0.000000 0.000000 0.000000 -13.419504 28.235252 -48.684194 -4.825634 -13.184601 40.063643 -0.353011 -6.713652 -15.660457 -0.013282 0.743286 -2.042811 0.007592 -1.323032 27.833732 1.834588 -1.813970 8.789150 2.596116 -1.001708 -5.481933 -5.729387 -6.279713 -11.953266 5.780988 -8.162848 9.376841 2.050557 -3.816647 5.248705 0.000000 0.000000 0.000000 -6.672387 -56.039148 -67.468479 21.298380 -32.173747 6.208679 24.541735 11.361356 -20.671658 0.000000 0.000000 0.000000 -7.125000 0.000000 0.000000 -4.144139 52.460478 0.761916 0.000000 0.000000 0.000000 -27.780741 -56.426417 21.978985 -19.308947 -29.800613 -5.183520 -35.745475 15.426328 0.619854 0.000000 0.000000 0.000000 7.125000 0.000000 0.000000 -7.277985 30.697738 -2.561047
-0.970451 18.146265 -3.266471 18.926964 -44.737898 15.800644 0.000000 0.000000 0.000000 -29.433509 4.617334 -34.514864 2.404928 9.662905 27.891837 -0.021950 16.504742 -23.196178 0.223359 -3.040634 -8.391990 0.000000 0.000000 0.000000 -19.973096 30.826333 -57.199315 -5.299915 -13.713719 42.102700 -0.324690 -7.774274 -16.301309 -0.018251 0.872365 -2.397726 0.407578 -1.889641 31.874656 1.414950 -2.480198 9.894363 2.247893 -1.330858 -6.119560 -4.584279 -5.776498 -14.812797 5.983780 -7.463516 5.850957 1.964754 -3.435080 4.543952 0.000000 0.000000 0.000000 -19.783616 -68.653979 -81.127375 15.414774 -24.719673 3.398151 25.524585 17.687176 -20.286138 0.000000 0.000000 0.000000 -7.125000 0.000000 0.000000 -3.039299 52.229640 0.540589 0.000000 0.000000 0.000000 -32.236902 -64.678903 16.367018 -18.068067 -28.244105 -4.581491 -36.405998 13.331481 -2.352669 0.000000 0.000000 0.000000 7.125000 0.000000 0.000000 -7.502930 27.037782 -3.298828
